# xmcd CD database file
#
# Track frame offsets:
#	150
#	30054
#	68740
#	89680
#	102243
#	135263
#	172653
#	210597
#	255684
#
# Disc length: 3569 seconds
#
# Revision: 0
# Processed by: cddbd v1.4PL0 Copyright (c) Steve Scherf et al.
# Submitted via: CDex 1.50Beta7
#
DISCID=670def09
DTITLE=ISU Jazz Band - Feb. 8, 2003 with Jeff Jarvis
DYEAR=2003
DGENRE=Jazz
TTITLE0=Splanky
TTITLE1=Chiapas
TTITLE2=Come Rain or Come Shine
TTITLE3=Skin Tone
TTITLE4=Jumpin Jivin Joey
TTITLE5=Show Me
TTITLE6=Augusta Nights
TTITLE7=Hot Strip Shuffle
TTITLE8=America
EXTD=YEAR: 2003
EXTT0=
EXTT1=
EXTT2=
EXTT3=
EXTT4=
EXTT5=
EXTT6=
EXTT7=
EXTT8=
PLAYORDER=
